<svg width="252" height="252" viewBox="0 0 252 252" fill="none" xmlns="http://www.w3.org/2000/svg">
<path d="M147 43.0498L126 62.9998" stroke="#F58521" stroke-width="23" stroke-linecap="round" stroke-linejoin="round"/>
<path d="M53.5496 84.0001L23.0996 75.6001" stroke="#F58521" stroke-width="23" stroke-linecap="round" stroke-linejoin="round"/>
<path d="M63.0008 126L43.0508 147" stroke="#F58521" stroke-width="23" stroke-linecap="round" stroke-linejoin="round"/>
<path d="M75.5996 23.1001L83.9996 53.5501" stroke="#F58521" stroke-width="23" stroke-linecap="round" stroke-linejoin="round"/>
<path d="M94.8884 101.745C94.4812 100.786 94.3699 99.7268 94.5687 98.704C94.7675 97.6811 95.2674 96.741 96.0042 96.0042C96.741 95.2674 97.6811 94.7675 98.704 94.5687C99.7268 94.3699 100.786 94.4812 101.745 94.8884L217.245 142.138C218.273 142.56 219.141 143.297 219.723 144.243C220.305 145.189 220.573 146.296 220.486 147.404C220.4 148.511 219.964 149.563 219.242 150.408C218.52 151.252 217.549 151.846 216.468 152.103L170.803 163.033C168.918 163.484 167.195 164.447 165.823 165.816C164.452 167.186 163.486 168.908 163.033 170.793L152.113 216.468C151.859 217.552 151.266 218.528 150.42 219.253C149.575 219.979 148.521 220.416 147.41 220.503C146.299 220.589 145.19 220.32 144.242 219.735C143.295 219.149 142.558 218.277 142.138 217.245L94.8884 101.745Z" stroke="#F58521" stroke-width="23" stroke-linecap="round" stroke-linejoin="round"/>
</svg>
